<?xml version="1.0" standalone="no"?>
<!DOCTYPE svg PUBLIC "-//W3C//DTD SVG 20010904//EN"
 "http://www.w3.org/TR/2001/REC-SVG-20010904/DTD/svg10.dtd">
<svg version="1.0" xmlns="http://www.w3.org/2000/svg"
 width="119.000000pt" height="119.000000pt" viewBox="0 0 119.000000 119.000000"
 preserveAspectRatio="xMidYMid meet">
<metadata>
Created by potrace 1.11, written by Peter Selinger 2001-2013
</metadata>
<g transform="translate(0.000000,119.000000) scale(0.100000,-0.100000)"
fill="#000000" stroke="none">
<path d="M570 1171 c-5 -11 -10 -31 -10 -45 0 -34 22 -126 30 -126 8 0 30 92
30 126 0 29 -16 64 -30 64 -5 0 -14 -9 -20 -19z"/>
<path d="M489 1141 c-16 -16 -29 -40 -29 -53 0 -14 18 -54 40 -91 22 -36 40
-71 40 -76 0 -6 4 -11 9 -11 20 0 21 57 1 114 -22 66 -25 98 -10 127 17 31
-16 24 -51 -10z"/>
<path d="M634 1154 c20 -20 20 -59 1 -115 -18 -49 -22 -100 -11 -118 13 -21
96 129 96 174 0 27 -52 75 -81 75 -19 0 -19 -1 -5 -16z"/>
<path d="M393 1121 c-66 -31 -98 -96 -64 -130 23 -23 15 -28 -13 -8 -10 7 -21
29 -25 47 -6 27 -12 34 -27 32 -39 -8 -42 -40 -6 -58 32 -16 37 -24 13 -17
-35 9 -71 -22 -71 -62 0 -47 28 -115 48 -115 9 0 38 23 65 52 l49 52 -28 8
c-21 5 -31 3 -37 -7 -4 -9 -12 -13 -17 -10 -5 3 -11 1 -14 -4 -4 -5 -2 -12 4
-16 6 -4 8 -11 4 -16 -9 -15 -34 10 -34 33 0 29 19 58 38 58 9 0 40 -9 69 -20
29 -11 55 -16 57 -11 3 5 -1 12 -10 15 -9 4 -15 9 -12 11 8 8 92 -30 107 -49
20 -24 31 -20 31 13 0 20 -15 46 -55 90 l-55 62 15 34 c7 19 13 35 12 35 -1 0
-21 -9 -44 -19z"/>
<path d="M750 1134 c0 -3 5 -14 11 -25 14 -28 3 -56 -43 -102 -43 -44 -61 -78
-52 -102 5 -12 10 -12 33 6 23 18 85 49 98 49 3 0 0 -7 -7 -15 -18 -22 7 -20
72 6 l53 21 17 -22 c27 -33 21 -80 -10 -80 -12 0 -13 3 -4 12 19 19 14 28 -13
28 -17 0 -23 4 -19 14 5 13 1 13 -24 4 l-31 -12 29 -36 c35 -44 48 -56 76 -64
18 -6 24 0 38 34 33 83 13 140 -50 140 l-29 0 25 13 c28 14 38 46 18 58 -25
16 -36 9 -43 -28 -7 -36 -19 -53 -39 -53 -6 0 -5 5 2 12 15 15 15 59 -1 78
-23 29 -107 79 -107 64z"/>
<path d="M177 996 c-18 -19 -23 -81 -7 -91 6 -3 10 2 10 12 0 10 6 27 14 38 7
11 10 28 7 39 -7 17 -8 17 -24 2z"/>
<path d="M988 992 c-3 -10 1 -27 8 -37 8 -10 14 -27 14 -38 0 -10 5 -15 10
-12 21 13 5 105 -19 105 -5 0 -11 -8 -13 -18z"/>
<path d="M395 912 c-32 -6 -65 -43 -90 -99 -13 -28 -34 -58 -47 -67 -20 -15
-14 -22 15 -17 4 0 7 -4 7 -9 0 -12 -42 -4 -80 15 -42 21 -100 -12 -100 -56 0
-6 8 -5 20 1 12 6 45 8 80 5 62 -6 103 6 95 28 -2 6 11 19 30 28 l34 16 -15
-28 c-28 -55 -8 -197 36 -259 10 -14 23 -44 29 -68 8 -30 21 -48 41 -61 17
-10 27 -21 23 -24 -3 -4 4 -7 16 -7 21 0 20 3 -15 34 -36 32 -38 36 -36 94 1
55 -1 59 -18 55 -16 -4 -25 5 -44 48 -19 43 -24 68 -22 124 4 95 10 114 49
153 24 24 43 34 70 35 20 1 37 5 37 9 0 10 -42 48 -54 49 -6 0 -18 2 -26 3 -8
1 -24 1 -35 -2z"/>
<path d="M735 913 c-25 -6 -66 -43 -59 -54 2 -4 14 -6 25 -4 30 6 72 -18 107
-61 29 -35 30 -40 28 -128 -2 -113 -34 -186 -74 -171 -10 4 -12 -5 -6 -40 8
-55 -8 -98 -42 -113 -28 -13 -32 -32 -7 -32 9 0 14 3 10 6 -3 4 8 16 25 28 17
11 35 35 40 51 5 17 23 58 40 93 34 70 48 178 30 231 -10 29 -1 44 13 21 3 -5
25 -10 48 -10 41 0 42 1 20 18 -11 9 -34 41 -49 70 -16 29 -38 61 -49 72 -23
21 -68 32 -100 23z"/>
<path d="M571 886 c-15 -18 10 -29 41 -17 l22 8 -21 12 c-27 14 -28 14 -42 -3z"/>
<path d="M152 870 c-23 -10 -42 -46 -42 -83 0 -21 4 -22 77 -22 66 0 78 3 81
18 2 12 -3 17 -17 17 -13 0 -30 14 -46 40 -14 22 -26 40 -28 39 -1 0 -12 -4
-25 -9z"/>
<path d="M985 840 c-16 -25 -33 -40 -45 -40 -22 0 -28 -29 -7 -32 6 -1 42 -2
79 -2 l68 -1 0 37 c0 28 -6 42 -26 57 -15 12 -31 21 -35 21 -5 0 -20 -18 -34
-40z"/>
<path d="M586 745 c-5 -20 -13 -25 -39 -26 -28 0 -30 -1 -10 -9 12 -5 30 -21
39 -35 22 -34 32 -18 27 43 -4 55 -8 62 -17 27z"/>
<path d="M980 735 c-14 -8 -40 -14 -59 -15 -29 0 -32 -2 -21 -15 9 -11 34 -15
94 -15 50 0 87 -5 94 -12 19 -19 15 13 -6 39 -22 29 -70 37 -102 18z"/>
<path d="M433 691 c4 -17 1 -21 -19 -21 -13 0 -24 -4 -24 -8 0 -13 43 -49 67
-57 25 -7 31 -24 36 -105 2 -30 4 -6 3 53 0 59 -3 111 -6 115 -3 4 -18 16 -34
26 -29 18 -29 18 -23 -3z"/>
<path d="M720 682 c-31 -21 -42 -36 -30 -40 6 -2 8 -8 5 -13 -8 -12 -9 -178
-1 -186 3 -3 6 25 6 63 0 76 5 88 36 98 11 3 31 18 44 31 l23 25 -27 0 c-23 0
-26 3 -21 20 8 24 -2 25 -35 2z"/>
<path d="M275 674 c-5 -1 -36 -8 -68 -14 -60 -12 -97 -37 -97 -66 0 -11 5 -14
18 -9 9 4 37 11 62 16 81 16 89 19 101 40 11 21 3 39 -16 33z"/>
<path d="M890 672 c0 -29 38 -53 100 -63 35 -5 69 -14 76 -19 15 -13 23 -3 17
21 -7 24 -45 45 -98 53 -22 3 -52 9 -67 12 -16 3 -28 1 -28 -4z"/>
<path d="M227 595 c-72 -20 -97 -40 -97 -77 0 -29 1 -30 18 -15 10 9 38 23 62
32 49 17 80 41 80 62 0 15 0 15 -63 -2z"/>
<path d="M900 600 c0 -20 40 -49 82 -60 24 -7 53 -21 66 -33 l22 -20 0 30 c0
39 -25 61 -91 79 -64 16 -79 17 -79 4z"/>
<path d="M590 572 c0 -18 5 -32 10 -32 6 0 8 12 6 26 -7 39 -16 42 -16 6z"/>
<path d="M288 550 c-1 -5 -27 -19 -56 -29 -30 -11 -60 -25 -68 -32 -17 -14
-18 -55 -2 -100 l12 -34 6 30 c3 19 17 37 40 52 74 46 90 64 90 94 0 27 -15
40 -22 19z"/>
<path d="M880 546 c0 -33 20 -62 56 -80 54 -28 84 -56 84 -80 1 -32 18 2 26
50 7 48 -8 64 -83 88 -29 10 -55 22 -58 27 -9 14 -25 11 -25 -5z"/>
<path d="M307 465 c-15 -14 -34 -25 -41 -25 -16 0 -52 -39 -60 -65 -7 -24 6
-77 20 -82 5 -2 10 7 11 19 1 12 24 42 53 68 40 37 50 53 50 78 0 18 -1 32 -2
32 -2 0 -16 -12 -31 -25z"/>
<path d="M856 481 c-15 -24 4 -60 54 -101 37 -31 50 -49 50 -68 0 -24 1 -25
16 -10 22 22 20 84 -2 109 -10 12 -34 27 -53 35 -19 8 -39 22 -46 31 -9 12
-14 13 -19 4z"/>
<path d="M355 420 c-3 -11 -23 -32 -43 -48 -20 -15 -42 -34 -49 -42 -17 -21
-16 -65 3 -102 l16 -32 13 36 c7 20 29 56 49 79 27 33 36 51 36 80 0 42 -15
60 -25 29z"/>
<path d="M816 424 c-13 -35 -4 -63 38 -112 24 -28 48 -66 51 -84 l7 -32 19 35
c26 49 24 83 -8 110 -15 13 -43 41 -64 61 -29 29 -39 34 -43 22z"/>
<path d="M500 399 c0 -3 16 -20 35 -39 19 -18 38 -45 44 -60 9 -26 7 -28 -33
-37 -23 -5 -47 -8 -54 -5 -21 7 -13 21 16 24 l27 4 -30 8 c-16 4 -38 12 -49
18 -17 9 -18 7 -12 -16 4 -15 2 -26 -4 -26 -5 0 -10 -6 -10 -13 0 -7 -16 -31
-35 -53 -34 -37 -37 -46 -37 -79 0 -48 1 -49 33 -19 39 37 62 81 61 117 -1 23
2 26 13 17 9 -8 33 -9 69 -5 42 6 56 4 56 -5 0 -10 3 -10 14 -1 10 8 30 10 60
6 31 -5 51 -3 61 5 13 11 15 8 15 -17 0 -30 16 -60 58 -105 34 -37 42 -35 42
10 0 29 -7 45 -30 67 -34 32 -64 90 -57 110 4 10 -1 11 -26 2 -61 -20 -63 -21
-34 -25 34 -4 26 -22 -11 -22 -82 1 -92 29 -32 94 22 24 40 45 40 48 0 3 -43
4 -95 4 -52 -1 -95 -3 -95 -7z"/>
<path d="M400 341 c0 -4 -16 -23 -35 -42 -45 -44 -59 -79 -50 -126 6 -36 8
-37 21 -18 8 11 23 29 32 40 41 47 52 71 52 112 0 24 -4 43 -10 43 -5 0 -10
-4 -10 -9z"/>
<path d="M774 327 c-10 -42 2 -71 54 -130 l47 -55 7 31 c11 48 3 70 -51 127
l-50 53 -7 -26z"/>
<path d="M476 204 c-9 -24 -7 -66 3 -59 6 3 13 -1 18 -8 11 -20 53 -32 53 -16
0 8 7 5 20 -6 15 -14 20 -15 20 -4 0 24 -17 42 -34 36 -9 -4 -16 -2 -16 4 0 6
-7 9 -15 5 -16 -6 -32 35 -20 53 3 6 0 11 -8 11 -8 0 -18 -7 -21 -16z"/>
<path d="M690 198 c0 -27 -14 -51 -25 -46 -4 1 -12 -7 -16 -20 -8 -21 -6 -23
14 -17 12 4 27 13 32 19 6 7 16 11 24 8 10 -3 12 0 8 12 -4 10 -7 29 -7 42 0
15 -6 24 -15 24 -9 0 -15 -9 -15 -22z"/>
<path d="M606 134 c-15 -39 4 -42 24 -3 8 15 7 19 -4 19 -7 0 -17 -7 -20 -16z"/>
<path d="M438 112 c-21 -24 -33 -76 -16 -66 29 16 48 38 48 55 0 26 -15 31
-32 11z"/>
<path d="M725 121 c-8 -15 11 -48 36 -62 29 -15 31 -8 11 31 -18 36 -36 48
-47 31z"/>
<path d="M502 97 c-15 -18 -26 -67 -15 -67 15 0 43 35 43 53 0 22 -15 30 -28
14z"/>
<path d="M667 104 c-9 -10 13 -62 30 -68 24 -10 26 -2 9 38 -14 34 -26 43 -39
30z"/>
<path d="M621 91 c-16 -11 -7 -42 19 -66 27 -24 33 -16 19 26 -15 43 -21 50
-38 40z"/>
<path d="M547 83 c-12 -20 -18 -73 -8 -73 14 0 41 41 41 62 0 18 -25 25 -33
11z"/>
<path d="M588 44 c-9 -8 3 -44 13 -38 11 7 12 44 1 44 -5 0 -11 -3 -14 -6z"/>
</g>
</svg>
